<?xml version="1.0" standalone="no"?>
<!DOCTYPE svg PUBLIC "-//W3C//DTD SVG 20010904//EN"
 "http://www.w3.org/TR/2001/REC-SVG-20010904/DTD/svg10.dtd">
<svg version="1.0" xmlns="http://www.w3.org/2000/svg"
 width="512.000000pt" height="512.000000pt" viewBox="0 0 512.000000 512.000000"
 preserveAspectRatio="xMidYMid meet">
<metadata>
Created by potrace 1.11, written by Peter Selinger 2001-2013
</metadata>
<g transform="translate(0.000000,512.000000) scale(0.100000,-0.100000)"
fill="#000000" stroke="none">
<path d="M4112 5099 c-118 -55 -175 -183 -138 -312 43 -146 219 -219 357 -148
56 30 86 63 117 129 54 119 -3 269 -124 327 -56 27 -158 28 -212 4z"/>
<path d="M1155 4850 c-8 -13 -53 -211 -60 -265 l-7 -50 74 2 c246 5 481 -163
563 -402 24 -72 26 -81 30 -178 6 -165 -53 -320 -167 -439 -53 -55 -64 -58
-15 -3 40 44 96 158 115 235 8 34 9 218 0 255 -23 98 -68 180 -143 256 -61 64
-91 79 -51 27 56 -75 95 -189 100 -295 13 -286 -210 -523 -492 -523 -261 1
-477 228 -471 497 4 171 74 303 229 433 l25 20 -45 -16 c-294 -110 -426 -481
-278 -778 90 -181 269 -305 478 -331 30 -4 56 -8 57 -9 2 -1 12 -43 22 -92 27
-122 38 -164 46 -172 4 -4 47 -7 96 -8 74 0 89 2 90 15 7 137 117 277 242 308
67 16 144 14 202 -5 33 -11 63 -18 67 -16 4 2 48 77 99 166 67 117 89 163 79
166 -8 3 -36 27 -62 55 -140 146 -116 393 50 509 l24 16 -93 158 c-50 88 -95
162 -99 167 -3 4 -22 1 -42 -7 -145 -61 -307 -16 -404 111 -30 39 -60 118 -66
173 -3 25 -5 25 -95 27 -51 1 -95 -2 -98 -7z"/>
<path d="M3536 4643 c-1 -1 -32 -7 -70 -13 -125 -20 -272 -89 -371 -174 -27
-23 -21 -22 55 13 111 51 194 71 310 78 218 12 412 -61 566 -214 198 -196 267
-481 179 -738 -75 -220 -259 -398 -475 -458 -210 -59 -415 -30 -607 85 -111
66 -244 217 -297 336 -11 23 -20 41 -22 39 -6 -6 28 -121 49 -166 148 -324
483 -504 850 -457 100 13 244 68 337 130 52 34 53 34 20 5 -147 -130 -350
-209 -543 -212 -203 -3 -351 41 -514 150 -360 241 -484 718 -288 1108 23 47
38 88 33 91 -17 11 -277 81 -363 99 -87 18 -75 26 -138 -100 -57 -115 -67
-145 -46 -145 14 0 76 -47 113 -85 42 -43 91 -122 112 -180 28 -79 29 -224 1
-305 -29 -85 -77 -159 -142 -218 l-52 -47 151 -232 151 -232 32 19 c96 56 272
73 383 36 117 -40 222 -128 278 -235 32 -59 66 -177 56 -193 -5 -8 67 -7 281
7 44 3 123 8 174 10 52 3 97 7 99 10 2 2 5 28 7 57 16 310 338 528 634 428 33
-11 62 -20 65 -20 3 0 32 54 65 119 l61 119 -98 84 c-53 46 -127 108 -164 138
-65 51 -79 74 -60 95 10 11 48 131 58 180 12 64 11 249 -3 313 -50 240 -189
438 -392 560 -61 36 -188 87 -241 97 -54 10 -228 24 -234 18z"/>
<path d="M156 4005 c-145 -51 -158 -251 -22 -322 97 -51 232 10 252 112 27
144 -97 258 -230 210z"/>
<path d="M1560 2990 c-4 -3 -13 -35 -20 -73 -60 -321 -388 -489 -691 -354
l-36 16 -70 -119 -71 -119 77 -73 c69 -67 107 -102 227 -210 l41 -36 16 32
c49 103 152 229 250 305 89 68 252 144 339 158 18 2 53 8 78 13 24 5 88 7 141
5 453 -14 823 -385 833 -835 1 -52 -1 -111 -4 -130 -6 -29 -8 -24 -9 30 -2 36
-4 72 -6 80 -1 8 -6 32 -9 54 -9 58 -52 177 -82 232 -102 184 -258 320 -439
382 -107 36 -147 43 -255 44 -93 1 -135 -4 -223 -29 -67 -18 -85 -34 -27 -23
63 11 208 4 290 -15 122 -28 255 -97 348 -180 49 -44 125 -148 161 -222 100
-203 99 -439 -1 -637 -58 -115 -160 -224 -271 -291 -161 -96 -371 -125 -552
-76 -314 87 -534 357 -561 690 -2 30 -6 56 -8 59 -10 9 -18 -135 -12 -206 16
-201 98 -367 251 -510 218 -204 534 -270 822 -173 125 43 224 105 317 197 82
82 88 88 118 135 l17 26 98 -34 c107 -37 293 -93 312 -93 6 0 16 10 21 22 6
13 35 64 65 113 l55 90 -23 18 c-211 172 -267 396 -156 625 31 64 132 175 170
187 10 4 19 10 19 14 0 5 -35 71 -78 147 -44 77 -94 166 -112 199 -70 127 -89
150 -104 126 -3 -5 -43 -19 -88 -31 -100 -27 -175 -25 -286 9 -162 49 -310
240 -321 411 -2 25 -4 46 -5 47 -4 5 -539 8 -546 3z"/>
<path d="M4094 2333 c-4 -15 -16 -46 -27 -68 -89 -178 -296 -240 -472 -142
l-45 25 -111 -136 c-62 -75 -116 -143 -122 -149 -6 -9 3 -26 31 -58 138 -157
89 -420 -97 -515 l-41 -20 21 -58 c11 -31 24 -65 30 -74 5 -10 9 -25 9 -34 0
-13 9 -15 58 -9 72 8 243 34 259 40 7 2 4 23 -12 67 -31 86 -38 128 -37 230 2
231 156 454 378 542 83 34 126 41 239 40 71 0 108 -6 173 -28 93 -31 105 -43
22 -21 -58 16 -182 21 -239 11 -140 -27 -252 -95 -343 -208 -41 -50 -50 -66
-78 -139 l-20 -54 22 28 c45 56 151 157 164 157 8 0 14 4 14 9 0 5 37 24 83
42 337 131 683 -101 676 -454 -3 -131 -54 -245 -153 -339 -55 -54 -163 -110
-240 -126 -48 -10 -178 -9 -225 2 -68 16 -159 56 -200 90 -38 30 13 -36 56
-74 98 -84 238 -133 370 -129 308 10 554 256 568 569 4 76 -10 174 -29 222 -6
12 14 31 91 82 150 100 138 79 100 177 -27 68 -37 84 -53 82 -10 -2 -40 -5
-66 -9 -190 -25 -369 140 -369 338 l0 54 -172 28 c-95 15 -180 30 -189 32 -13
4 -19 -3 -24 -23z"/>
<path d="M4485 734 c-70 -36 -99 -85 -97 -163 3 -197 282 -236 342 -47 24 75
-11 162 -84 207 -38 23 -119 25 -161 3z"/>
<path d="M1171 714 c-52 -26 -101 -79 -123 -134 -6 -14 -12 -51 -14 -84 -10
-219 248 -343 415 -199 179 153 72 443 -164 443 -46 0 -74 -7 -114 -26z"/>
</g>
</svg>
